# xmcd CD database file
#
# Track frame offsets:
#	150
#	8455
#	81557
#	147293
#	196268
#	248865
#	250353
#
# Disc length: 3595 seconds
#
# Revision: 0
# Processed by: cddbd v1.5.2PL0 Copyright (c) Steve Scherf et al.
# Submitted via: CDex 2.00
#
DISCID=580e0907
DTITLE=Mike Gibbs - Festival 69 CD2
DYEAR=2018
DGENRE=Jazz
TTITLE0=Announcement
TTITLE1=Tangelwood '63
TTITLE2=Sojourn/June 15th 1967
TTITLE3=Walter L
TTITLE4=Nowhere
TTITLE5=Announcement
TTITLE6=Doin' the Pig
EXTD=YEAR: 2018
EXTT0=
EXTT1=
EXTT2=
EXTT3=
EXTT4=
EXTT5=
EXTT6=
PLAYORDER=
